# xmcd
#
# Track frame offsets: 
#        150
#        10606
#        23958
#        38583
#        53041
#        62478
#        75184
#        86271
#        100816
#        110466
#        121651
#
# Disc length: 1796 seconds
#
# Revision: 0
# Processed by: cddbd v1.5.2PL0 Copyright (c) Steve Scherf et al.
# Submitted via: ExactAudioCopy v0.99pb4
#
DISCID=6a07020b
DTITLE=Ugly Valley Boys - Double Down
DYEAR=2011
DGENRE=Country
TTITLE0=Pappy
TTITLE1=Raven
TTITLE2=Never Be Again
TTITLE3=Alota Guns
TTITLE4=Good Enough
TTITLE5=Power Lines
TTITLE6=Silver City
TTITLE7=Yesterday
TTITLE8=Double Track
TTITLE9=Clickity Clack
TTITLE10=Shadows Fire
EXTD=
EXTT0=
EXTT1=
EXTT2=
EXTT3=
EXTT4=
EXTT5=
EXTT6=
EXTT7=
EXTT8=
EXTT9=
EXTT10=
PLAYORDER=
